<svg width="500" height="500" viewBox="0 0 500 500" fill="none" xmlns="http://www.w3.org/2000/svg">
<g clip-path="url(#clip0_279_797)">
<path d="M250 0C388.071 0 500 111.929 500 250V250C500 388.071 388.071 500 250 500V500C111.929 500 0 388.071 0 250V250C0 111.929 111.929 0 250 0V0Z" fill="#1E42FF"/>
<path d="M282.868 285.006L277.436 289.613L178.105 373.86C176.548 375.181 175.428 376.826 174.858 378.63C174.288 380.435 174.288 382.334 174.858 384.138C175.428 385.943 176.548 387.588 178.105 388.908C179.662 390.229 181.602 391.179 183.729 391.662L215.636 398.914C222.017 400.364 228.737 400.364 235.118 398.914C241.5 397.463 247.319 394.614 251.99 390.652L324.278 329.342L356.754 301.797C358.311 300.476 359.431 298.831 360.001 297.027C360.571 295.223 360.571 293.323 360.001 291.519C359.431 289.715 358.311 288.07 356.754 286.749C355.197 285.429 353.257 284.479 351.13 283.995L319.222 276.744C312.841 275.294 306.122 275.294 299.74 276.744C293.359 278.194 287.54 281.044 282.868 285.006Z" fill="white"/>
<path d="M155.3 193.619V236.928V263.193V306.152C155.3 307.951 155.929 309.709 157.108 311.205C158.286 312.701 159.961 313.866 161.92 314.555C163.88 315.243 166.036 315.423 168.116 315.072C170.196 314.721 172.107 313.855 173.607 312.583L240.089 256.197L240.415 255.92C241.35 255.127 242.091 254.186 242.597 253.151C243.102 252.115 243.363 251.006 243.363 249.885C243.362 248.764 243.102 247.654 242.596 246.619C242.091 245.583 241.349 244.643 240.415 243.85L173.607 187.187C172.107 185.915 170.196 185.049 168.116 184.698C166.036 184.347 163.88 184.527 161.92 185.216C159.961 185.904 158.286 187.07 157.108 188.566C155.929 190.061 155.3 191.82 155.3 193.619Z" fill="white"/>
<path d="M215.91 101.088L184.002 108.339C181.875 108.822 179.935 109.772 178.378 111.092C176.821 112.413 175.701 114.058 175.131 115.862C174.561 117.667 174.561 119.566 175.131 121.37C175.701 123.174 176.821 124.82 178.378 126.14L277.435 210.155L283.141 214.995C287.813 218.957 293.632 221.806 300.013 223.257C306.395 224.707 313.114 224.707 319.496 223.257L351.403 216.005C353.53 215.522 355.47 214.572 357.027 213.251C358.584 211.931 359.704 210.286 360.274 208.481C360.844 206.677 360.844 204.778 360.274 202.973C359.704 201.169 358.584 199.524 357.027 198.203L324.277 170.427L252.265 109.35C247.593 105.388 241.774 102.538 235.393 101.088C229.011 99.6375 222.292 99.6374 215.91 101.088Z" fill="white"/>
</g>
<defs>
<clipPath id="clip0_279_797">
<rect width="499.999" height="500" rx="250" fill="white"/>
</clipPath>
</defs>
</svg>
